<svg xmlns="http://www.w3.org/2000/svg" viewBox="0 0 100 100" width="100" height="100" fill="none">
  <defs>
    <linearGradient id="logoGrad" x1="0%" y1="0%" x2="100%" y2="100%">
      <stop offset="0%" stop-color="#4f46e5" />
      <stop offset="100%" stop-color="#a855f7" />
    </linearGradient>
  </defs>
  <!-- Flow / Speed lines -->
  <rect x="12" y="42" width="12" height="6" rx="3" fill="url(#logoGrad)" />
  <rect x="22" y="32" width="22" height="6" rx="3" fill="url(#logoGrad)" />
  <rect x="6" y="52" width="10" height="6" rx="3" fill="url(#logoGrad)" />
  <rect x="18" y="62" width="14" height="6" rx="3" fill="url(#logoGrad)" />
  
  <!-- Stylized Letter P / FlowNop Brand Mark -->
  <path d="M 32 22
           L 68 22
           A 22 22 0 0 1 90 44
           A 22 22 0 0 1 68 66
           L 56 66
           A 8 8 0 0 0 48 74
           L 42 82
           A 6 6 0 0 1 30 78
           L 38 66
           A 18 18 0 0 1 50 48
           L 62 48
           A 8 8 0 0 0 70 40
           A 8 8 0 0 0 62 32
           L 32 32
           A 5 5 0 0 1 32 22 Z" 
        fill="url(#logoGrad)" />
</svg>